G04*
G04 #@! TF.GenerationSoftware,Altium Limited,Altium Designer,23.11.1 (41)*
G04*
G04 Layer_Color=32896*
%FSLAX44Y44*%
%MOMM*%
G71*
G04*
G04 #@! TF.SameCoordinates,5C29CE77-9974-4D78-97DC-7FC7E6DACF92*
G04*
G04*
G04 #@! TF.FilePolarity,Positive*
G04*
G01*
G75*
%ADD10C,0.2000*%
%ADD11C,0.2540*%
%ADD12R,2.2000X0.7000*%
D10*
X159000Y51000D02*
X181000D01*
X159000Y94000D02*
X181000D01*
X159000Y51000D02*
Y94000D01*
X181000Y51000D02*
Y94000D01*
X158000Y118000D02*
X182000D01*
Y164000D01*
X158000Y118000D02*
Y164000D01*
X182000D01*
D11*
X182696Y172383D02*
Y187617D01*
X175078D01*
X172539Y185078D01*
Y180000D01*
X175078Y177461D01*
X182696D01*
X177617D02*
X172539Y172383D01*
X157304D02*
X167461D01*
X157304Y182539D01*
Y185078D01*
X159843Y187617D01*
X164922D01*
X167461Y185078D01*
X182696Y42618D02*
Y27383D01*
X175078D01*
X172539Y29922D01*
Y40078D01*
X175078Y42618D01*
X182696D01*
X157304Y27383D02*
X167461D01*
X157304Y37539D01*
Y40078D01*
X159843Y42618D01*
X164922D01*
X167461Y40078D01*
D12*
X170000Y54500D02*
D03*
M02*
