G04*
G04 #@! TF.GenerationSoftware,Altium Limited,Altium Designer,23.11.1 (41)*
G04*
G04 Layer_Color=65535*
%FSLAX44Y44*%
%MOMM*%
G71*
G04*
G04 #@! TF.SameCoordinates,5C29CE77-9974-4D78-97DC-7FC7E6DACF92*
G04*
G04*
G04 #@! TF.FilePolarity,Positive*
G04*
G01*
G75*
%ADD10C,0.2000*%
%ADD11C,0.2540*%
%ADD12R,2.2000X0.7000*%
D10*
X19000Y41000D02*
Y84000D01*
X41000Y41000D02*
Y84000D01*
X19000D02*
X41000D01*
X19000Y41000D02*
X41000D01*
X18000Y108000D02*
X42000D01*
X18000D02*
Y154000D01*
X42000Y108000D02*
Y154000D01*
X18000D02*
X42000D01*
X143892Y80712D02*
Y131512D01*
X85472Y93413D02*
X100712D01*
Y116272D01*
X85472D02*
X100712D01*
X85472Y80712D02*
X143892D01*
X85472D02*
Y131512D01*
X143892D01*
X12000Y10999D02*
X17998D01*
X19997Y12998D01*
X17998Y14997D01*
X13999D01*
X12000Y16997D01*
X13999Y18996D01*
X19997D01*
X25996D02*
X29994D01*
X31994Y16997D01*
Y10999D01*
X25996D01*
X23996Y12998D01*
X25996Y14997D01*
X31994D01*
X35992Y10999D02*
Y18996D01*
X41990D01*
X43990Y16997D01*
Y10999D01*
X55986Y22995D02*
Y10999D01*
X49988D01*
X47988Y12998D01*
Y16997D01*
X49988Y18996D01*
X55986D01*
X59984Y10999D02*
X63983D01*
X61984D01*
Y18996D01*
X59984D01*
X69981Y7000D02*
Y18996D01*
X75979D01*
X77979Y16997D01*
Y12998D01*
X75979Y10999D01*
X69981D01*
X83977Y24994D02*
Y20996D01*
X81977Y18996D01*
X89975Y10999D02*
X95973D01*
X97972Y12998D01*
X95973Y14997D01*
X91974D01*
X89975Y16997D01*
X91974Y18996D01*
X97972D01*
X121964D02*
X115966D01*
X113967Y16997D01*
Y12998D01*
X115966Y10999D01*
X121964D01*
X125963D02*
X129962D01*
X127963D01*
Y18996D01*
X125963D01*
X135960D02*
Y10999D01*
Y14997D01*
X137959Y16997D01*
X139959Y18996D01*
X141958D01*
X155953D02*
X149955D01*
X147956Y16997D01*
Y12998D01*
X149955Y10999D01*
X155953D01*
X159952Y18996D02*
Y12998D01*
X161952Y10999D01*
X167950D01*
Y18996D01*
X171948Y10999D02*
X175947D01*
X173948D01*
Y18996D01*
X171948D01*
X183944Y20996D02*
Y18996D01*
X181945D01*
X185944D01*
X183944D01*
Y12998D01*
X185944Y10999D01*
X72000Y92000D02*
X79997D01*
X72000Y115999D02*
X79997D01*
X75999Y119997D02*
Y112000D01*
D11*
X-10157Y122382D02*
Y137618D01*
X-2539D01*
X0Y135078D01*
Y130000D01*
X-2539Y127461D01*
X-10157D01*
X-5078D02*
X0Y122382D01*
X5078D02*
X10157D01*
X7618D01*
Y137618D01*
X5078Y135078D01*
X-10157Y72618D02*
Y57382D01*
X-2539D01*
X0Y59922D01*
Y70078D01*
X-2539Y72618D01*
X-10157D01*
X5078Y57382D02*
X10157D01*
X7618D01*
Y72618D01*
X5078Y70078D01*
X97277Y155289D02*
X92198D01*
X94738D01*
Y142593D01*
X92198Y140054D01*
X89659D01*
X87120Y142593D01*
X102355Y140054D02*
X107433D01*
X104894D01*
Y155289D01*
X102355Y152750D01*
X137540Y142540D02*
X142618D01*
X140079D01*
Y157775D01*
X137540Y155236D01*
D12*
X30000Y44500D02*
D03*
M02*
